<svg width="23" height="20" viewBox="0 0 23 20" fill="currentColor" xmlns="http://www.w3.org/2000/svg">
<path d="M11.5062 17.9395C13.4079 17.9395 13.4079 19.8592 15.334 19.8592C18.2047 19.8592 18.4762 16.1622 16.5771 14.2769C14.6779 12.3917 14.6754 9.87793 11.5062 9.87793C8.33707 9.87793 8.33707 12.3917 6.43544 14.2769C4.53381 16.1622 4.80781 19.9328 7.67848 19.9328C9.60462 19.9328 9.60462 17.9395 11.5062 17.9395Z" fill="#000958"/>
<path d="M8.20286 7.9642C9.57727 7.76706 10.4717 6.07525 10.2006 4.18545C9.92958 2.29564 8.59566 0.923453 7.22125 1.12059C5.84684 1.31773 4.95241 3.00953 5.22347 4.89934C5.49453 6.78915 6.82845 8.16133 8.20286 7.9642Z" fill="#000958"/>
<path d="M17.7839 4.88584C18.055 2.99604 17.1605 1.30423 15.7861 1.10709C14.4117 0.909956 13.0778 2.28214 12.8067 4.17195C12.5357 6.06176 13.4301 7.75356 14.8045 7.9507C16.1789 8.14784 17.5128 6.77565 17.7839 4.88584Z" fill="#000958"/>
<path d="M3.93682 12.2525C4.87392 11.7985 5.1429 10.4176 4.5376 9.16818C3.93231 7.91872 2.68195 7.27385 1.74486 7.72782C0.807762 8.18179 0.538784 9.56269 1.14408 10.8122C1.74937 12.0616 2.99973 12.7065 3.93682 12.2525Z" fill="#000958"/>
<path d="M21.8611 10.7967C22.4664 9.5472 22.1974 8.1663 21.2603 7.71233C20.3232 7.25836 19.0729 7.90323 18.4676 9.15269C17.8623 10.4022 18.1312 11.7831 19.0683 12.237C20.0054 12.691 21.2558 12.0461 21.8611 10.7967Z" fill="#000958"/>
</svg>
