<svg width="35" height="38" viewBox="0 0 35 38" fill="none" xmlns="http://www.w3.org/2000/svg">
<path d="M16.6587 0C26.7883 0 35 8.2117 35 18.3413C35 29.4827 25.4087 39.5433 12.6202 36.6827C10.2644 36.0096 6.56249 34.3269 4.54326 33.3173C2.52403 32.3077 2.86057 31.803 3.02884 31.6347C3.19711 31.4664 3.87018 31.1299 5.04807 31.6347C5.34307 31.7611 5.67367 31.91 6.03427 32.0724C7.11345 32.5583 8.46131 33.1652 9.92788 33.6539C10.9375 33.9904 12.6202 33.9904 13.4615 33.4856C13.9247 33.2077 14.6094 32.2776 14.1346 31.8029C13.7981 31.4663 12.7885 31.4663 11.1058 31.9712C9.42308 32.476 8.58173 31.6346 9.59135 30.9615C10.601 30.2885 12.2837 29.9519 14.4712 30.1202C15.217 30.1776 15.8259 30.2545 16.4313 30.331C17.6014 30.4788 18.7583 30.625 20.8654 30.625C27.6559 30.625 31.6346 24.6708 31.6346 18.3413C31.6346 10.0704 24.9296 3.36538 16.6587 3.36538C8.38766 3.36538 1.68269 10.0704 1.68269 18.3413C1.68269 23.1594 3.95792 27.446 7.49255 30.1855C2.95172 26.8817 0 21.5258 0 15.4806C0 6.35168 7.61916 0 16.6587 0Z" fill="url(#paint0_linear_11_1230)"/>
<defs>
<linearGradient id="paint0_linear_11_1230" x1="17.5" y1="0" x2="18.5" y2="47" gradientUnits="userSpaceOnUse">
<stop stop-color="#FF592C"/>
<stop offset="1" stop-color="#FF592C" stop-opacity="0"/>
</linearGradient>
</defs>
</svg>
